<svg width="168" height="388" viewBox="0 0 168 388" fill="none" xmlns="http://www.w3.org/2000/svg">
<path d="M65.7147 112.354V151.533L130.062 179.926V323.524L102.399 351.187H47.6704V388H117.11L167.167 337.946V155.799L65.7147 112.354Z" fill="#FFD6AC" style="fill:#FFD6AC;fill:color(display-p3 1.0000 0.8392 0.6745);fill-opacity:1;"/>
<path d="M102.598 101.891V51.299C102.598 23.0112 79.5838 0 51.299 0C23.0141 0 0 23.0112 0 51.299V225.411C0 253.696 23.0112 276.71 51.299 276.71C79.5867 276.71 102.598 253.699 102.598 225.411V193.974L65.8461 178.097L65.8373 183.643C65.8373 183.964 65.7876 215.813 65.7876 225.624C65.7876 233.519 59.3658 239.941 51.4714 239.941C43.577 239.941 37.1551 233.519 37.1551 225.624V51.074C37.1551 43.1855 43.5653 36.7694 51.4451 36.7694C59.3248 36.7694 65.735 43.1855 65.735 51.074V86.9202L102.604 101.891H102.598Z" fill="#FFD6AC" style="fill:#FFD6AC;fill:color(display-p3 1.0000 0.8392 0.6745);fill-opacity:1;"/>
<path d="M146.771 83.9518C156.973 83.9518 165.245 92.2231 165.245 102.426C165.245 112.628 156.973 120.899 146.771 120.899C136.568 120.899 128.297 112.628 128.297 102.426C128.297 92.2231 136.568 83.9518 146.771 83.9518Z" fill="#E94243" style="fill:#E94243;fill:color(display-p3 0.9137 0.2588 0.2627);fill-opacity:1;"/>
</svg>
